<?xml version="1.0" standalone="no"?>
<!DOCTYPE svg PUBLIC "-//W3C//DTD SVG 20010904//EN"
 "http://www.w3.org/TR/2001/REC-SVG-20010904/DTD/svg10.dtd">
<svg version="1.0" xmlns="http://www.w3.org/2000/svg"
 width="436.000000pt" height="436.000000pt" viewBox="0 0 436.000000 436.000000"
 preserveAspectRatio="xMidYMid meet">
<metadata>
Created by potrace 1.11, written by Peter Selinger 2001-2013
</metadata>
<g transform="translate(0.000000,436.000000) scale(0.100000,-0.100000)"
fill="#000000" stroke="none">
<path d="M2053 3682 c-56 -136 -136 -330 -178 -430 l-75 -184 0 -1235 c0 -872
3 -1247 11 -1273 15 -49 57 -96 110 -120 39 -17 66 -20 254 -20 232 0 261 7
317 66 61 65 58 -14 58 1338 l0 1236 -104 237 c-58 131 -125 283 -151 338 -60
129 -71 155 -80 183 -3 12 -11 22 -16 22 -5 0 -8 3 -7 8 3 11 -23 82 -30 82
-4 0 -53 -112 -109 -248z m289 -304 c53 -120 89 -213 80 -206 -10 6 -27 20
-38 31 -21 18 -22 17 -105 -50 -46 -38 -89 -72 -95 -76 -7 -4 -60 26 -121 67
-81 55 -113 72 -125 65 -12 -7 -9 7 12 59 76 185 123 299 131 314 7 13 24 16
86 15 l78 0 97 -219z m-271 -315 l106 -71 93 74 92 74 59 -48 58 -47 0 -1132
c1 -1072 0 -1133 -16 -1134 -105 -3 -586 1 -591 6 -3 3 -7 508 -7 1123 -1 950
1 1121 13 1141 17 28 75 90 82 88 3 -1 53 -34 111 -74z m402 -2353 c4 0 7 -28
7 -62 0 -45 -6 -72 -20 -95 -35 -59 -55 -63 -294 -63 l-215 0 -35 30 c-46 41
-56 79 -47 177 1 7 22 13 54 15 39 2 356 1 550 -2z"/>
</g>
</svg>
